<mxfile host="app.diagrams.net" modified="2020-10-26T09:44:06.273Z" agent="5.0 (Windows NT 10.0; WOW64) AppleWebKit/537.36 (KHTML, like Gecko) Chrome/80.0.3987.87 Safari/537.36 SE 2.X MetaSr 1.0" etag="lnFYaKx34Fyif9rt50lD" version="13.8.2" type="github">
  <diagram id="9zuYNIIFEwcfwW7uDdRH" name="Page-1">
    <mxGraphModel dx="1102" dy="567" grid="1" gridSize="10" guides="1" tooltips="1" connect="1" arrows="1" fold="1" page="1" pageScale="1" pageWidth="827" pageHeight="1169" math="0" shadow="0">
      <root>
        <mxCell id="0" />
        <mxCell id="1" parent="0" />
        <mxCell id="gNlPnnT1LrWGPwhpcQ5h-1" value="疫苗保险业务逻辑" style="swimlane;html=1;childLayout=stackLayout;resizeParent=1;resizeParentMax=0;startSize=30;fontSize=16;" vertex="1" parent="1">
          <mxGeometry x="80" y="40" width="600" height="1040" as="geometry" />
        </mxCell>
        <mxCell id="gNlPnnT1LrWGPwhpcQ5h-2" value="用户端" style="swimlane;html=1;startSize=30;fontSize=14;" vertex="1" parent="gNlPnnT1LrWGPwhpcQ5h-1">
          <mxGeometry y="30" width="200" height="1010" as="geometry" />
        </mxCell>
        <mxCell id="gNlPnnT1LrWGPwhpcQ5h-3" style="edgeStyle=orthogonalEdgeStyle;rounded=0;orthogonalLoop=1;jettySize=auto;html=1;exitX=0.5;exitY=1;exitDx=0;exitDy=0;entryX=0.5;entryY=0;entryDx=0;entryDy=0;fontSize=14;" edge="1" parent="gNlPnnT1LrWGPwhpcQ5h-2" source="gNlPnnT1LrWGPwhpcQ5h-7" target="gNlPnnT1LrWGPwhpcQ5h-6">
          <mxGeometry relative="1" as="geometry" />
        </mxCell>
        <mxCell id="gNlPnnT1LrWGPwhpcQ5h-4" style="edgeStyle=orthogonalEdgeStyle;rounded=0;orthogonalLoop=1;jettySize=auto;html=1;exitX=0.5;exitY=1;exitDx=0;exitDy=0;entryX=0.5;entryY=0;entryDx=0;entryDy=0;fontSize=14;" edge="1" parent="gNlPnnT1LrWGPwhpcQ5h-2" source="gNlPnnT1LrWGPwhpcQ5h-6" target="gNlPnnT1LrWGPwhpcQ5h-5">
          <mxGeometry relative="1" as="geometry" />
        </mxCell>
        <mxCell id="gNlPnnT1LrWGPwhpcQ5h-5" value="填写接种信息&lt;br&gt;（姓名、电话、身份证）" style="rounded=1;whiteSpace=wrap;html=1;fontSize=14;" vertex="1" parent="gNlPnnT1LrWGPwhpcQ5h-2">
          <mxGeometry x="40" y="272" width="120" height="60" as="geometry" />
        </mxCell>
        <mxCell id="gNlPnnT1LrWGPwhpcQ5h-6" value="购买疫苗套餐" style="ellipse;whiteSpace=wrap;html=1;fontSize=14;" vertex="1" parent="gNlPnnT1LrWGPwhpcQ5h-2">
          <mxGeometry x="40" y="150" width="120" height="80" as="geometry" />
        </mxCell>
        <mxCell id="gNlPnnT1LrWGPwhpcQ5h-7" value="" style="shape=actor;whiteSpace=wrap;html=1;fontSize=14;" vertex="1" parent="gNlPnnT1LrWGPwhpcQ5h-2">
          <mxGeometry x="80" y="50" width="40" height="60" as="geometry" />
        </mxCell>
        <mxCell id="gNlPnnT1LrWGPwhpcQ5h-8" value="" style="edgeStyle=orthogonalEdgeStyle;rounded=0;orthogonalLoop=1;jettySize=auto;html=1;fontSize=14;" edge="1" parent="gNlPnnT1LrWGPwhpcQ5h-2" source="gNlPnnT1LrWGPwhpcQ5h-5" target="gNlPnnT1LrWGPwhpcQ5h-9">
          <mxGeometry relative="1" as="geometry" />
        </mxCell>
        <mxCell id="gNlPnnT1LrWGPwhpcQ5h-9" value="前往指定机构接种" style="whiteSpace=wrap;html=1;rounded=1;fontSize=14;" vertex="1" parent="gNlPnnT1LrWGPwhpcQ5h-2">
          <mxGeometry x="40" y="380" width="120" height="60" as="geometry" />
        </mxCell>
        <mxCell id="gNlPnnT1LrWGPwhpcQ5h-10" value="收到个人凭证&lt;br&gt;加入STAR计划" style="rounded=1;whiteSpace=wrap;html=1;fontSize=14;" vertex="1" parent="gNlPnnT1LrWGPwhpcQ5h-2">
          <mxGeometry x="40" y="680" width="120" height="60" as="geometry" />
        </mxCell>
        <mxCell id="gNlPnnT1LrWGPwhpcQ5h-11" value="" style="edgeStyle=orthogonalEdgeStyle;rounded=0;orthogonalLoop=1;jettySize=auto;html=1;fontSize=14;" edge="1" parent="gNlPnnT1LrWGPwhpcQ5h-2" source="gNlPnnT1LrWGPwhpcQ5h-10" target="gNlPnnT1LrWGPwhpcQ5h-12">
          <mxGeometry relative="1" as="geometry" />
        </mxCell>
        <mxCell id="gNlPnnT1LrWGPwhpcQ5h-12" value="已完成相关任务&lt;br&gt;如接种疫苗" style="whiteSpace=wrap;html=1;rounded=1;fontSize=14;dashed=1;" vertex="1" parent="gNlPnnT1LrWGPwhpcQ5h-2">
          <mxGeometry x="40" y="780" width="120" height="60" as="geometry" />
        </mxCell>
        <mxCell id="gNlPnnT1LrWGPwhpcQ5h-13" value="咨询疫苗&amp;nbsp;&lt;br&gt;or&lt;br&gt;保险信息" style="rounded=1;whiteSpace=wrap;html=1;fontSize=14;" vertex="1" parent="gNlPnnT1LrWGPwhpcQ5h-2">
          <mxGeometry x="40" y="880" width="120" height="60" as="geometry" />
        </mxCell>
        <mxCell id="gNlPnnT1LrWGPwhpcQ5h-14" value="云健康" style="swimlane;html=1;startSize=30;fontSize=14;" vertex="1" parent="gNlPnnT1LrWGPwhpcQ5h-1">
          <mxGeometry x="200" y="30" width="200" height="1010" as="geometry" />
        </mxCell>
        <mxCell id="gNlPnnT1LrWGPwhpcQ5h-15" value="定期汇总团险用户信息（指定格式）&lt;br&gt;考虑系统对接" style="rounded=1;whiteSpace=wrap;html=1;fontSize=14;" vertex="1" parent="gNlPnnT1LrWGPwhpcQ5h-14">
          <mxGeometry x="40" y="272" width="120" height="60" as="geometry" />
        </mxCell>
        <mxCell id="gNlPnnT1LrWGPwhpcQ5h-16" value="核销接种信息" style="whiteSpace=wrap;html=1;rounded=1;fontSize=14;" vertex="1" parent="gNlPnnT1LrWGPwhpcQ5h-14">
          <mxGeometry x="40" y="380" width="120" height="60" as="geometry" />
        </mxCell>
        <mxCell id="gNlPnnT1LrWGPwhpcQ5h-17" value="确认保单信息&lt;br&gt;敲章" style="rounded=1;whiteSpace=wrap;html=1;fontSize=14;" vertex="1" parent="gNlPnnT1LrWGPwhpcQ5h-14">
          <mxGeometry x="40" y="480" width="120" height="60" as="geometry" />
        </mxCell>
        <mxCell id="gNlPnnT1LrWGPwhpcQ5h-18" value="" style="edgeStyle=orthogonalEdgeStyle;rounded=0;orthogonalLoop=1;jettySize=auto;html=1;fontSize=14;" edge="1" parent="gNlPnnT1LrWGPwhpcQ5h-14" source="gNlPnnT1LrWGPwhpcQ5h-17" target="gNlPnnT1LrWGPwhpcQ5h-19">
          <mxGeometry relative="1" as="geometry" />
        </mxCell>
        <mxCell id="gNlPnnT1LrWGPwhpcQ5h-19" value="财务打款" style="whiteSpace=wrap;html=1;rounded=1;fontSize=14;" vertex="1" parent="gNlPnnT1LrWGPwhpcQ5h-14">
          <mxGeometry x="40" y="580" width="120" height="60" as="geometry" />
        </mxCell>
        <mxCell id="gNlPnnT1LrWGPwhpcQ5h-20" value="疫苗相关(客服)" style="whiteSpace=wrap;html=1;rounded=1;fontSize=14;" vertex="1" parent="gNlPnnT1LrWGPwhpcQ5h-14">
          <mxGeometry x="40" y="880" width="120" height="60" as="geometry" />
        </mxCell>
        <mxCell id="gNlPnnT1LrWGPwhpcQ5h-21" value="复保" style="swimlane;html=1;startSize=30;fontSize=14;" vertex="1" parent="gNlPnnT1LrWGPwhpcQ5h-1">
          <mxGeometry x="400" y="30" width="200" height="1010" as="geometry" />
        </mxCell>
        <mxCell id="gNlPnnT1LrWGPwhpcQ5h-22" value="保险相关(客服)" style="whiteSpace=wrap;html=1;rounded=1;fontSize=14;" vertex="1" parent="gNlPnnT1LrWGPwhpcQ5h-21">
          <mxGeometry x="40" y="880" width="120" height="60" as="geometry" />
        </mxCell>
        <mxCell id="gNlPnnT1LrWGPwhpcQ5h-23" value="制作投保单" style="rounded=1;whiteSpace=wrap;html=1;fontSize=14;" vertex="1" parent="gNlPnnT1LrWGPwhpcQ5h-21">
          <mxGeometry x="40" y="272" width="120" height="60" as="geometry" />
        </mxCell>
        <mxCell id="gNlPnnT1LrWGPwhpcQ5h-24" value="" style="edgeStyle=orthogonalEdgeStyle;rounded=0;orthogonalLoop=1;jettySize=auto;html=1;fontSize=14;" edge="1" parent="gNlPnnT1LrWGPwhpcQ5h-21" source="gNlPnnT1LrWGPwhpcQ5h-23" target="gNlPnnT1LrWGPwhpcQ5h-25">
          <mxGeometry relative="1" as="geometry" />
        </mxCell>
        <mxCell id="gNlPnnT1LrWGPwhpcQ5h-25" value="财务交款单" style="whiteSpace=wrap;html=1;rounded=1;fontSize=14;" vertex="1" parent="gNlPnnT1LrWGPwhpcQ5h-21">
          <mxGeometry x="40" y="380" width="120" height="60" as="geometry" />
        </mxCell>
        <mxCell id="gNlPnnT1LrWGPwhpcQ5h-26" value="保单统一承保&lt;br&gt;频率同实际结算" style="whiteSpace=wrap;html=1;rounded=1;fontSize=14;" vertex="1" parent="gNlPnnT1LrWGPwhpcQ5h-21">
          <mxGeometry x="40" y="580" width="120" height="60" as="geometry" />
        </mxCell>
        <mxCell id="gNlPnnT1LrWGPwhpcQ5h-27" value="保障升级&lt;br&gt;身故保额+10%&lt;br&gt;（保全处理）" style="rounded=1;whiteSpace=wrap;html=1;dashed=1;fontSize=14;" vertex="1" parent="gNlPnnT1LrWGPwhpcQ5h-21">
          <mxGeometry x="40" y="780" width="120" height="60" as="geometry" />
        </mxCell>
        <mxCell id="gNlPnnT1LrWGPwhpcQ5h-28" style="edgeStyle=orthogonalEdgeStyle;rounded=0;orthogonalLoop=1;jettySize=auto;html=1;exitX=1;exitY=0.5;exitDx=0;exitDy=0;entryX=0;entryY=0.5;entryDx=0;entryDy=0;fontSize=14;" edge="1" parent="gNlPnnT1LrWGPwhpcQ5h-1" source="gNlPnnT1LrWGPwhpcQ5h-5" target="gNlPnnT1LrWGPwhpcQ5h-15">
          <mxGeometry relative="1" as="geometry" />
        </mxCell>
        <mxCell id="gNlPnnT1LrWGPwhpcQ5h-29" style="edgeStyle=orthogonalEdgeStyle;rounded=0;orthogonalLoop=1;jettySize=auto;html=1;exitX=1;exitY=0.5;exitDx=0;exitDy=0;entryX=0;entryY=0.5;entryDx=0;entryDy=0;fontSize=14;" edge="1" parent="gNlPnnT1LrWGPwhpcQ5h-1" source="gNlPnnT1LrWGPwhpcQ5h-15" target="gNlPnnT1LrWGPwhpcQ5h-23">
          <mxGeometry relative="1" as="geometry" />
        </mxCell>
        <mxCell id="gNlPnnT1LrWGPwhpcQ5h-30" value="" style="edgeStyle=orthogonalEdgeStyle;rounded=0;orthogonalLoop=1;jettySize=auto;html=1;fontSize=14;" edge="1" parent="gNlPnnT1LrWGPwhpcQ5h-1" source="gNlPnnT1LrWGPwhpcQ5h-9" target="gNlPnnT1LrWGPwhpcQ5h-16">
          <mxGeometry relative="1" as="geometry" />
        </mxCell>
        <mxCell id="gNlPnnT1LrWGPwhpcQ5h-31" style="edgeStyle=orthogonalEdgeStyle;rounded=0;orthogonalLoop=1;jettySize=auto;html=1;exitX=0.5;exitY=1;exitDx=0;exitDy=0;entryX=1;entryY=0.5;entryDx=0;entryDy=0;fontSize=14;" edge="1" parent="gNlPnnT1LrWGPwhpcQ5h-1" source="gNlPnnT1LrWGPwhpcQ5h-25" target="gNlPnnT1LrWGPwhpcQ5h-17">
          <mxGeometry relative="1" as="geometry" />
        </mxCell>
        <mxCell id="gNlPnnT1LrWGPwhpcQ5h-32" value="" style="edgeStyle=orthogonalEdgeStyle;rounded=0;orthogonalLoop=1;jettySize=auto;html=1;fontSize=14;" edge="1" parent="gNlPnnT1LrWGPwhpcQ5h-1" source="gNlPnnT1LrWGPwhpcQ5h-19" target="gNlPnnT1LrWGPwhpcQ5h-26">
          <mxGeometry relative="1" as="geometry" />
        </mxCell>
        <mxCell id="gNlPnnT1LrWGPwhpcQ5h-33" style="edgeStyle=orthogonalEdgeStyle;rounded=0;orthogonalLoop=1;jettySize=auto;html=1;exitX=0.5;exitY=1;exitDx=0;exitDy=0;entryX=1;entryY=0.5;entryDx=0;entryDy=0;fontSize=14;" edge="1" parent="gNlPnnT1LrWGPwhpcQ5h-1" source="gNlPnnT1LrWGPwhpcQ5h-26" target="gNlPnnT1LrWGPwhpcQ5h-10">
          <mxGeometry relative="1" as="geometry" />
        </mxCell>
        <mxCell id="gNlPnnT1LrWGPwhpcQ5h-34" style="edgeStyle=orthogonalEdgeStyle;rounded=0;orthogonalLoop=1;jettySize=auto;html=1;exitX=1;exitY=0.5;exitDx=0;exitDy=0;entryX=0;entryY=0.5;entryDx=0;entryDy=0;fontSize=14;dashed=1;" edge="1" parent="gNlPnnT1LrWGPwhpcQ5h-1" source="gNlPnnT1LrWGPwhpcQ5h-12" target="gNlPnnT1LrWGPwhpcQ5h-27">
          <mxGeometry relative="1" as="geometry" />
        </mxCell>
        <mxCell id="gNlPnnT1LrWGPwhpcQ5h-35" value="" style="edgeStyle=orthogonalEdgeStyle;rounded=0;orthogonalLoop=1;jettySize=auto;html=1;fontSize=14;" edge="1" parent="gNlPnnT1LrWGPwhpcQ5h-1" source="gNlPnnT1LrWGPwhpcQ5h-13" target="gNlPnnT1LrWGPwhpcQ5h-20">
          <mxGeometry relative="1" as="geometry" />
        </mxCell>
        <mxCell id="gNlPnnT1LrWGPwhpcQ5h-36" style="edgeStyle=orthogonalEdgeStyle;rounded=0;orthogonalLoop=1;jettySize=auto;html=1;exitX=1;exitY=0.5;exitDx=0;exitDy=0;fontSize=14;" edge="1" parent="gNlPnnT1LrWGPwhpcQ5h-1" source="gNlPnnT1LrWGPwhpcQ5h-20" target="gNlPnnT1LrWGPwhpcQ5h-22">
          <mxGeometry relative="1" as="geometry" />
        </mxCell>
      </root>
    </mxGraphModel>
  </diagram>
</mxfile>
